<svg width="24" height="24" viewBox="0 0 24 24" fill="none" xmlns="http://www.w3.org/2000/svg">
<path d="M5 22C4.45 22 3.97917 21.8042 3.5875 21.4125C3.19583 21.0208 3 20.55 3 20V4C3 3.45 3.19583 2.97917 3.5875 2.5875C3.97917 2.19583 4.45 2 5 2H17C17.55 2 18.0208 2.19583 18.4125 2.5875C18.8042 2.97917 19 3.45 19 4V20C19 20.55 18.8042 21.0208 18.4125 21.4125C18.0208 21.8042 17.55 22 17 22H5ZM5 20H17V4H15V10.125C15 10.325 14.9167 10.4708 14.75 10.5625C14.5833 10.6542 14.4167 10.65 14.25 10.55L13.025 9.8C12.8583 9.7 12.6875 9.65 12.5125 9.65C12.3375 9.65 12.1667 9.7 12 9.8L10.775 10.55C10.6083 10.65 10.4375 10.6542 10.2625 10.5625C10.0875 10.4708 10 10.325 10 10.125V4H5V20Z" fill="url(#paint0_linear_7_106)"/>
<defs>
<linearGradient id="paint0_linear_7_106" x1="3" y1="12" x2="19" y2="12" gradientUnits="userSpaceOnUse">
<stop stop-color="#76F5BE"/>
<stop offset="1" stop-color="#10BEAA"/>
</linearGradient>
</defs>
</svg>
