<svg width="24" height="24" viewBox="0 0 24 24" fill="none" xmlns="http://www.w3.org/2000/svg">
<path d="M14.9843 19.95L14.2002 22.375C14.1387 22.5583 14.0311 22.7083 13.8773 22.825C13.7236 22.9417 13.5544 23 13.3699 23C13.0624 23 12.8126 22.8625 12.6204 22.5875C12.4282 22.3125 12.3936 22.0083 12.5166 21.675L16.0221 11.625C16.099 11.4417 16.2143 11.2917 16.3681 11.175C16.5218 11.0583 16.691 11 16.8755 11H17.5673C17.7518 11 17.921 11.0583 18.0747 11.175C18.2285 11.2917 18.3438 11.4417 18.4207 11.625L21.9262 21.7C22.0492 22.0167 22.0184 22.3125 21.8339 22.5875C21.6494 22.8625 21.4034 23 21.0959 23C20.8961 23 20.7231 22.9417 20.577 22.825C20.431 22.7083 20.3195 22.55 20.2426 22.35L19.4585 19.95H14.9843ZM9.4262 14.975L5.41328 19.3C5.24416 19.4833 5.03275 19.5792 4.77906 19.5875C4.52537 19.5958 4.30627 19.5 4.12177 19.3C3.95264 19.1167 3.86808 18.8833 3.86808 18.6C3.86808 18.3167 3.95264 18.0833 4.12177 17.9L8.13469 13.55C7.59656 12.9667 7.10839 12.3 6.6702 11.55C6.23201 10.8 5.82841 9.95 5.45941 9H7.39668C7.70418 9.65 8.01169 10.2167 8.31919 10.7C8.62669 11.1833 8.99569 11.6667 9.4262 12.15C9.93358 11.6 10.4602 10.8292 11.006 9.8375C11.5518 8.84583 11.9631 7.9 12.2399 7H2.92251C2.66113 7 2.44204 6.90417 2.26522 6.7125C2.08841 6.52083 2 6.28333 2 6C2 5.71667 2.08841 5.47917 2.26522 5.2875C2.44204 5.09583 2.66113 5 2.92251 5H8.45756V4C8.45756 3.71667 8.54597 3.47917 8.72279 3.2875C8.8996 3.09583 9.1187 3 9.38007 3C9.64145 3 9.86055 3.09583 10.0374 3.2875C10.2142 3.47917 10.3026 3.71667 10.3026 4V5H15.8376C16.099 5 16.3181 5.09583 16.4949 5.2875C16.6717 5.47917 16.7601 5.71667 16.7601 6C16.7601 6.28333 16.6717 6.52083 16.4949 6.7125C16.3181 6.90417 16.099 7 15.8376 7H14.0849C13.762 8.2 13.2777 9.43333 12.6319 10.7C11.9862 11.9667 11.3481 12.9333 10.7177 13.6L12.9317 16.05L12.2399 18.1L9.4262 14.975ZM15.5609 18.2H18.8819L17.2214 13.1L15.5609 18.2Z" fill="url(#paint0_linear_7_108)"/>
<defs>
<linearGradient id="paint0_linear_7_108" x1="2" y1="13" x2="22" y2="13" gradientUnits="userSpaceOnUse">
<stop stop-color="#76F5BE"/>
<stop offset="1" stop-color="#10BEAA"/>
</linearGradient>
</defs>
</svg>
