<svg width="162" height="36" viewBox="0 0 162 36" fill="none" xmlns="http://www.w3.org/2000/svg">
<path d="M44.112 30.288V34.56H30.384V30.288L32.496 29.856C33.008 29.728 33.376 29.552 33.6 29.328C33.824 29.104 33.92 28.768 33.888 28.32L32.88 14.016V10.032L31.824 13.872L24.576 34.56H18.288L10.992 14.304L9.888 10.272L9.84 14.112L8.784 28.224C8.752 29.056 9.232 29.6 10.224 29.856L12.288 30.288V34.56H0V30.288L1.872 29.712C2.448 29.552 2.816 29.376 2.976 29.184C3.136 28.992 3.232 28.576 3.264 27.936L5.088 6.144C5.12 5.728 5.024 5.424 4.8 5.232C4.576 5.008 4.192 4.832 3.648 4.704L1.776 4.272V0H12.96L21.552 24.096L21.888 26.88L22.416 24.144L30.912 0H42.288V4.272L40.416 4.704C39.84 4.832 39.44 5.024 39.216 5.28C38.992 5.536 38.896 5.856 38.928 6.24L40.8 27.936C40.832 28.576 40.928 28.992 41.088 29.184C41.248 29.376 41.616 29.552 42.192 29.712L44.112 30.288Z" fill="#141414"/>
<path d="M69.5378 30.624V34.56H61.2817L60.8018 31.968C59.6817 33.024 58.5138 33.808 57.2978 34.32C56.1138 34.8 54.7698 35.04 53.2658 35.04C51.1858 35.04 49.5538 34.48 48.3698 33.36C47.2178 32.208 46.6418 30.592 46.6418 28.512C46.6418 26.496 47.2817 24.848 48.5617 23.568C49.8417 22.256 51.6817 21.472 54.0817 21.216L60.4178 20.592V18.096C60.4178 17.072 60.0977 16.32 59.4577 15.84C58.8177 15.36 57.8418 15.12 56.5298 15.12C55.3138 15.12 54.1778 15.36 53.1217 15.84L52.4497 18.864H48.4658L47.9378 12.96C49.0258 12.448 50.4658 11.952 52.2578 11.472C54.0818 10.96 55.7937 10.704 57.3937 10.704C60.1777 10.704 62.4338 11.312 64.1618 12.528C65.9218 13.712 66.8018 15.44 66.8018 17.712V29.136C66.8018 29.68 67.1538 30.064 67.8577 30.288L69.5378 30.624ZM53.0737 27.984C53.0737 28.752 53.2818 29.344 53.6978 29.76C54.1458 30.144 54.7218 30.336 55.4258 30.336C56.1938 30.336 57.0578 30.128 58.0177 29.712C58.9777 29.264 59.7778 28.72 60.4178 28.08V24.432L55.5698 25.2C54.7698 25.328 54.1458 25.632 53.6978 26.112C53.2818 26.592 53.0737 27.216 53.0737 27.984Z" fill="#141414"/>
<path d="M87.0765 10.704C87.9725 10.704 88.7885 10.848 89.5245 11.136C90.2605 11.392 90.8045 11.664 91.1565 11.952L90.7725 18.816H86.7405L86.2605 16.032C85.9725 15.84 85.5245 15.744 84.9165 15.744C84.1165 15.744 83.3645 16.128 82.6605 16.896C81.9565 17.664 81.4765 18.624 81.2205 19.776V29.136C81.2205 29.424 81.3165 29.68 81.5085 29.904C81.7005 30.128 81.9565 30.256 82.2765 30.288L84.8205 30.624V34.56H72.0045V30.624L73.6365 30.288C74.3405 30.064 74.6925 29.68 74.6925 29.136V16.656C74.6925 16.368 74.5965 16.128 74.4045 15.936C74.2125 15.712 73.9565 15.568 73.6365 15.504L71.9565 15.168V11.184H79.8765L80.5005 15.072C81.1725 13.824 82.1005 12.784 83.2845 11.952C84.5005 11.12 85.7645 10.704 87.0765 10.704Z" fill="#141414"/>
<path d="M102.616 35.04C99.2558 35.04 96.6638 34.112 94.8398 32.256C93.0158 30.368 92.1038 27.632 92.1038 24.048C92.1038 21.424 92.5998 19.104 93.5918 17.088C94.6158 15.072 96.0238 13.504 97.8158 12.384C99.6078 11.264 101.672 10.704 104.008 10.704C105.48 10.704 106.984 10.912 108.52 11.328C110.056 11.712 111.288 12.208 112.216 12.816L111.688 19.536H107.56L106.792 16.08C105.832 15.6 104.552 15.36 102.952 15.36C101.48 15.36 100.424 15.952 99.7838 17.136C99.1438 18.32 98.8238 20.176 98.8238 22.704C98.8238 27.792 100.728 30.336 104.536 30.336C105.592 30.336 106.648 30.208 107.704 29.952C108.792 29.696 110.088 29.328 111.592 28.848L112.456 32.832C110.184 33.696 108.44 34.272 107.224 34.56C106.04 34.88 104.504 35.04 102.616 35.04Z" fill="#141414"/>
<path d="M140.537 30.624V34.56H132.617L132.185 31.536C131.513 32.432 130.457 33.248 129.017 33.984C127.577 34.688 126.057 35.04 124.457 35.04C122.089 35.04 120.185 34.4 118.745 33.12C117.337 31.84 116.633 30.064 116.633 27.792V16.656C116.633 16.368 116.537 16.128 116.345 15.936C116.153 15.712 115.897 15.568 115.577 15.504L113.897 15.168V11.184H123.161V26.88C123.161 27.84 123.433 28.592 123.977 29.136C124.521 29.68 125.321 29.952 126.377 29.952C127.209 29.952 128.073 29.744 128.969 29.328C129.865 28.912 130.633 28.336 131.273 27.6V16.656C131.273 16.368 131.177 16.112 130.985 15.888C130.825 15.664 130.585 15.536 130.265 15.504L128.393 15.168V11.184H137.801V29.136C137.801 29.68 138.153 30.064 138.857 30.288L140.537 30.624Z" fill="#141414"/>
<path d="M143.069 27.168H147.053L147.629 30.048C148.045 30.304 148.589 30.512 149.261 30.672C149.965 30.832 150.701 30.912 151.469 30.912C152.525 30.912 153.357 30.72 153.965 30.336C154.573 29.952 154.877 29.424 154.877 28.752C154.877 28.176 154.685 27.696 154.301 27.312C153.949 26.896 153.325 26.512 152.429 26.16L148.829 24.72C146.717 23.92 145.165 22.992 144.173 21.936C143.213 20.848 142.733 19.504 142.733 17.904C142.733 16.368 143.165 15.056 144.029 13.968C144.925 12.88 146.045 12.064 147.389 11.52C148.765 10.976 150.141 10.704 151.517 10.704C154.525 10.704 157.485 11.248 160.397 12.336L159.869 18.336H156.029L155.453 15.648C155.325 15.616 155.037 15.536 154.589 15.408C154.141 15.248 153.661 15.136 153.149 15.072C152.669 14.976 152.157 14.928 151.613 14.928C150.781 14.928 150.109 15.12 149.597 15.504C149.117 15.888 148.877 16.368 148.877 16.944C148.877 17.616 149.117 18.192 149.597 18.672C150.077 19.152 150.957 19.632 152.237 20.112L156.461 21.696C158.093 22.272 159.309 23.072 160.109 24.096C160.909 25.12 161.309 26.256 161.309 27.504C161.309 29.072 160.845 30.432 159.917 31.584C158.989 32.704 157.773 33.568 156.269 34.176C154.765 34.752 153.197 35.04 151.565 35.04C149.741 35.04 148.125 34.896 146.717 34.608C145.341 34.352 143.933 33.936 142.493 33.36L143.069 27.168Z" fill="#141414"/>
</svg>
